# xmcd CD database file
#
# Track frame offsets:
#	150
#	15384
#	39249
#	54646
#	79335
#	106174
#	119804
#	144810
#	174615
#	196230
#
# Disc length: 2825 seconds
#
# Revision: 0
# Processed by: cddbd v1.5.2PL0 Copyright (c) Steve Scherf et al.
# Submitted via: CDex 1.70beta2
#
DISCID=7d0b070a
DTITLE=Solveig Slettahjell - Live at Victoria
DYEAR=2017
DGENRE=Jazz
TTITLE0=12th of Never
TTITLE1=How Long Has This Been Going On
TTITLE2=Visit
TTITLE3=Be Steady
TTITLE4=Take It With Me
TTITLE5=Outlet
TTITLE6=Is My Living In Vain
TTITLE7=Come Healing
TTITLE8=I Don't Feel No Ways Tired
TTITLE9=A Day
EXTD=YEAR: 2017
EXTT0=
EXTT1=
EXTT2=
EXTT3=
EXTT4=
EXTT5=
EXTT6=
EXTT7=
EXTT8=
EXTT9=
PLAYORDER=
